<svg width="21" height="14" viewBox="0 0 21 14" fill="none" xmlns="http://www.w3.org/2000/svg">
<path d="M8.83522 0.499939L10.5012 2.67597L12.1673 0.499939H8.83522ZM14.7996 0.717542L14.5663 3.1547L17.6652 1.80556L14.7996 0.717542ZM3.33734 1.80556L6.46947 3.1547L6.23622 0.717542L3.33734 1.80556Z" fill="#4AA9FF"/>
<path d="M6.63421 13.556H2.70239V10.749L7.30062 11.4453C6.20104 12.2069 6.63421 13.556 6.63421 13.556Z" fill="#EBA352"/>
<path d="M6.26772 13.556H1.86941C1.86941 13.556 1.93605 12.1633 1.203 10.9665L6.70088 11.4888C6.06779 12.555 6.26772 13.556 6.26772 13.556ZM5.83455 9.72618H7.50058V4.89539C7.50058 4.56899 7.13405 4.30786 6.66756 4.30786C6.20108 4.30786 5.83455 4.56899 5.83455 4.91715V9.72618ZM3.86864 9.72618H5.83455V4.48195C5.83455 4.09026 5.40138 3.76385 4.83494 3.76385C4.30181 3.76385 3.83532 4.09026 3.83532 4.48195V9.72618H3.86864Z" fill="#FFDD67"/>
<path d="M2.17068 9.72616H3.90334V4.78657C3.90334 4.4384 3.5035 4.15552 3.03701 4.15552C2.57052 4.15552 2.17068 4.4384 2.17068 4.78657V9.72616ZM1.37099 4.89537C0.937819 4.89537 0.604614 5.15649 0.604614 5.4829V9.72616H2.17068V5.4829C2.17068 5.15649 1.80415 4.89537 1.37099 4.89537Z" fill="#FFDD67"/>
<path d="M6.66733 4.28622H6.50072C6.90057 4.32975 7.20045 4.59087 7.20045 4.87375V9.72631H7.50034V4.89551C7.50034 4.56911 7.13381 4.28622 6.66733 4.28622ZM4.86802 3.76398C4.80138 3.76398 4.76806 3.76398 4.73474 3.78574C5.20122 3.82926 5.56775 4.1339 5.56775 4.48207V7.98548L5.86763 8.20308V4.48207C5.83431 4.09038 5.40115 3.76398 4.86802 3.76398ZM3.03539 4.15566H2.90211C3.30195 4.19918 3.60184 4.46031 3.60184 4.76495V7.96372L3.90172 8.18132V4.78671C3.8684 4.43855 3.50188 4.15566 3.03539 4.15566ZM1.36937 4.89551C1.30273 4.89551 1.2694 4.89551 1.23608 4.91727C1.60261 4.96079 1.86917 5.20016 1.86917 5.48304V7.98548L2.16906 8.20308V5.48304C2.16906 5.15664 1.80253 4.89551 1.36937 4.89551Z" fill="#EBA352"/>
<path d="M10.3006 7.50677C9.80075 7.13685 8.80113 7.31093 8.1014 8.26839C7.6016 8.92119 7.46832 8.79063 7.20175 8.83415V8.24662C7.20175 8.24662 0.570973 7.96374 0.570973 8.61655C0.570973 8.61655 0.271089 10.2268 0.904178 11.2278C1.87047 12.7293 6.80191 13.1209 8.33465 10.575C8.63453 10.0745 9.0677 9.53048 9.4009 8.98648C9.83407 8.33367 10.867 7.94198 10.3006 7.50677Z" fill="#FFDD67"/>
<path d="M9.96758 7.35443C11.0338 7.87668 9.06793 8.87765 8.13496 10.4226C6.80214 12.6422 2.90364 12.6422 1.27094 11.6195C2.77036 12.7728 6.93542 12.9904 8.33488 10.575C9.26785 9.00822 11.5336 7.8114 9.96758 7.35443Z" fill="#EBA352"/>
<path d="M7.50187 8.81244C6.20237 8.5078 3.47009 9.09533 3.83662 10.7926C3.83662 9.20413 6.00245 8.8342 7.20199 8.8342C7.36859 8.8342 7.50187 8.81244 7.50187 8.81244ZM14.3659 13.5562H18.2977V10.7491L13.6995 11.4454C14.7991 12.2071 14.3659 13.5562 14.3659 13.5562Z" fill="#EBA352"/>
<path d="M14.7326 13.5561H19.1309C19.1309 13.5561 19.0642 12.1635 19.7973 10.9666L14.2994 11.4889C14.9325 12.5551 14.7326 13.5561 14.7326 13.5561ZM15.1657 9.72631H13.4997V4.89551C13.4997 4.56911 13.8662 4.30799 14.3327 4.30799C14.7992 4.30799 15.1657 4.56911 15.1657 4.91727V9.72631ZM17.1316 9.72631H15.1657V4.48207C15.1657 4.09038 15.5989 3.76398 16.1653 3.76398C16.6985 3.76398 17.1649 4.09038 17.1649 4.48207V9.72631H17.1316Z" fill="#FFDD67"/>
<path d="M18.8302 9.72616H17.0975V4.78657C17.0975 4.4384 17.4974 4.15552 17.9639 4.15552C18.4304 4.15552 18.8302 4.4384 18.8302 4.78657V9.72616ZM19.6299 4.89537C20.0631 4.89537 20.3963 5.15649 20.3963 5.4829V9.72616H18.8302V5.4829C18.8302 5.15649 19.1967 4.89537 19.6299 4.89537Z" fill="#FFDD67"/>
<path d="M14.3331 4.28622H14.4997C14.0999 4.32975 13.8 4.59087 13.8 4.87375V9.72631H13.5001V4.89551C13.5001 4.56911 13.8666 4.28622 14.3331 4.28622ZM16.1324 3.76398C16.1991 3.76398 16.2324 3.76398 16.2657 3.78574C15.7992 3.82926 15.4327 4.1339 15.4327 4.48207V7.98548L15.1328 8.20308V4.48207C15.1661 4.09038 15.5993 3.76398 16.1324 3.76398ZM17.9651 4.15566H18.0984C17.6985 4.19918 17.3986 4.46031 17.3986 4.76495V7.96372L17.0987 8.18132V4.78671C17.1321 4.43855 17.4986 4.15566 17.9651 4.15566ZM19.6311 4.89551C19.6977 4.89551 19.7311 4.89551 19.7644 4.91727C19.3979 4.96079 19.1313 5.20016 19.1313 5.48304V7.98548L18.8314 8.20308V5.48304C18.8314 5.15664 19.1979 4.89551 19.6311 4.89551Z" fill="#EBA352"/>
<path d="M10.6997 7.50677C11.1995 7.13685 12.1991 7.31093 12.8988 8.26839C13.3986 8.92119 13.5319 8.79063 13.7985 8.83415V8.24662C13.7985 8.24662 20.4293 7.96374 20.4293 8.61655C20.4293 8.61655 20.7291 10.2268 20.0961 11.2278C19.1298 12.7293 14.1983 13.1209 12.6656 10.575C12.3657 10.0745 11.9325 9.53048 11.5993 8.98648C11.1662 8.33367 10.1332 7.94198 10.6997 7.50677Z" fill="#FFDD67"/>
<path d="M11.0336 7.35443C9.96731 7.87668 11.9332 8.87765 12.8662 10.4226C14.199 12.6422 18.0975 12.6422 19.7302 11.6195C18.2308 12.7728 14.0657 12.9904 12.6663 10.575C11.7333 9.00822 9.46751 7.8114 11.0336 7.35443Z" fill="#EBA352"/>
<path d="M13.5001 8.81244C14.7996 8.5078 17.5319 9.09533 17.1654 10.7926C17.1654 9.20413 14.9995 8.8342 13.8 8.8342C13.6334 8.8342 13.5001 8.81244 13.5001 8.81244Z" fill="#EBA352"/>
</svg>
