<svg width="21" height="16" viewBox="0 0 21 16" fill="none" xmlns="http://www.w3.org/2000/svg">
<path d="M18.5541 8.45321L18.1516 2.55353L15.368 4.21587C13.9929 3.98771 13.624 3.98771 12.5508 3.49879C11.9136 3.20543 11.1087 3.401 10.7062 3.62917C10.1025 3.00986 6.1786 3.92252 5.74261 4.11809C4.56878 3.75955 2.82481 2.45575 2.82481 2.45575L2.22113 9.10511L3.02604 9.30068C3.09311 9.52885 3.29434 10.083 3.29434 10.083C2.55651 10.9956 3.42849 12.0712 4.26694 11.7127C3.89802 12.6254 4.87062 13.4728 5.64199 12.8861C5.54138 13.7336 6.4469 14.3529 7.11766 13.7662C6.81582 14.7766 7.98964 15.5263 8.69394 14.7114C9.197 15.0374 9.66653 15.2981 10.069 15.4285C10.7733 15.7219 11.5447 15.07 11.4105 14.2551C12.2154 15.1678 13.4228 14.2877 13.1545 13.2773C14.06 13.9618 15.1667 12.8209 14.5966 11.8105C15.6027 12.3646 16.4747 10.8652 15.5021 9.88739L18.5541 8.45321Z" fill="#FFDD67"/>
<path d="M4.3347 9.39826C4.83776 9.62642 5.17314 10.3761 4.63654 11.028L4.40177 11.2888C4.13347 11.6147 3.86517 11.7125 3.59686 11.7125C3.79809 11.8103 4.03285 11.8103 4.26762 11.7125C4.30116 11.6147 4.36823 11.4843 4.46885 11.3865L4.70361 11.1258C4.83776 10.9628 5.00545 10.8324 5.1396 10.7672C5.40791 10.0827 4.93838 9.43085 4.3347 9.39826ZM8.15801 12.6252C8.69462 12.7555 9.09707 13.44 8.69462 14.1897L8.49339 14.4831C8.29216 14.8416 8.02386 15.0046 7.75556 15.0372C8.12447 15.135 8.52693 15.0046 8.79523 14.5157L8.99646 14.2223C9.49952 13.3096 8.86231 12.56 8.15801 12.6252ZM5.81036 12.3644L6.34697 11.5495C6.31343 11.0932 5.91097 10.7021 5.50852 10.6695C6.01159 10.8976 6.34697 11.6473 5.81036 12.2992L5.5756 12.56C5.30729 12.8859 5.03899 12.9837 4.73715 12.9837C5.00545 13.1141 5.30729 13.0815 5.60913 12.8859C5.64267 12.7229 5.70975 12.5274 5.81036 12.3644ZM7.25249 10.8976C7.78909 11.0606 8.15801 11.7777 7.68848 12.4948L7.05126 13.4726C6.8165 13.8312 6.54819 13.9615 6.27989 13.9615C6.61527 14.0593 7.05126 13.9615 7.3531 13.5052L7.99032 12.5274C8.52693 11.6799 7.92325 10.865 7.25249 10.8976ZM11.713 11.7125C11.7466 11.7125 12.149 11.6473 12.2832 11.6473C11.7801 11.1584 10.9752 11.5495 10.5057 11.2888C10.841 11.8429 11.5453 11.7125 11.6124 11.7125L12.4173 12.7229C13.0881 13.5378 12.5515 14.4831 11.8472 14.5808C12.585 14.809 13.3228 14.0593 13.0881 13.2445C13.0545 13.2119 11.713 11.7125 11.713 11.7125ZM12.5179 9.82199C12.5179 9.82199 13.021 9.72421 13.457 9.72421C12.9539 9.33307 12.1826 9.69161 11.6795 9.36566C11.8807 9.7894 12.3167 9.78939 12.4509 9.82199L13.9936 11.5495C14.6979 12.3318 14.1948 13.2771 13.4905 13.44C14.2954 13.6682 15.0668 12.6577 14.5637 11.7777C14.2284 11.6473 12.5179 9.82199 12.5179 9.82199Z" fill="#EBA352"/>
<path d="M11.4447 13.5707C10.9416 13.1796 10.2374 13.4729 9.93551 13.2774C10.1032 13.7337 10.7404 13.6359 10.774 13.6359C11.3441 14.4834 10.7404 15.3635 10.0361 15.4286C10.7404 15.722 11.5118 15.0701 11.3776 14.2552C11.3441 14.2226 10.8746 13.6359 10.8746 13.6359C10.9416 13.6033 11.3106 13.5707 11.4447 13.5707ZM18.1858 7.89922C18.1858 7.89922 17.6157 9.04004 15.4022 9.65934C15.1003 9.3008 14.4631 8.58371 13.7253 7.96441C14.1948 7.86662 14.4296 7.50808 14.7985 7.44289C14.6644 7.31251 14.1948 7.3777 13.8259 7.50808C13.1551 7.73624 11.6124 6.6932 11.6124 6.6932L10.338 6.85618C9.43244 7.70365 7.48725 8.15998 7.38664 6.85618C7.31956 5.94352 9.36537 5.32422 10.0026 4.73751C10.8075 3.98783 11.5118 3.04257 12.8198 3.69447C13.893 4.21599 14.329 4.1834 15.8046 4.44416C16.3077 4.54194 16.6431 4.7701 17.012 5.25903C16.7102 4.57453 16.2742 4.28118 15.7376 4.1834L18.0852 3.10776L18.1188 2.55365L15.3351 4.08561C14.0607 3.89004 13.5911 3.89004 12.5515 3.40112C11.8807 3.07517 11.3441 3.17295 10.9081 3.43371C10.1032 2.97738 9.63367 3.07517 9.33183 3.14036C8.39277 3.43371 6.88357 3.46631 5.54205 3.98783C5.77682 4.05302 6.01158 4.11821 6.17927 4.11821C7.48725 3.72707 8.8623 3.75966 9.49952 3.5315C9.70075 3.46631 10.1032 3.46631 10.5392 3.69447C10.2709 3.92264 10.0361 4.1834 9.76782 4.44416C9.1306 5.03086 7.18541 5.87833 7.31956 6.95396C7.38664 7.47548 8.12447 8.84447 10.5727 7.31251L11.6124 7.18213C11.6124 7.18213 13.5241 8.06219 15.3016 10.0831C16.0059 10.8654 15.5699 11.7128 14.8656 11.9084C15.7711 12.0714 16.5425 10.8328 15.6705 9.98529L17.7834 8.87706L18.1858 7.89922Z" fill="#EBA352"/>
<path d="M17.583 2.87909L18.6897 8.45282L17.7842 8.84396C17.3147 7.63795 16.6104 4.737 16.7781 3.33542L17.583 2.87909Z" fill="#3B946F"/>
<path d="M3.39496 9.95231C3.22727 9.56117 3.12665 9.03965 3.12665 9.03965L2.28821 8.48553L2.22113 9.10484L2.95896 9.30041C3.05958 9.62636 3.16019 9.88712 3.29434 10.0827L3.39496 9.95231Z" fill="#EBA352"/>
<path d="M1.71753 9.00681L3.52857 2.91156L4.36702 3.46567C4.50117 4.37833 2.95843 8.55048 2.38829 9.16978L1.71753 9.00681Z" fill="#3B946F"/>
<path d="M17.5487 2.84677C17.2804 3.00975 18.253 8.64867 18.6554 8.48569C19.9299 7.93158 20.5 7.76861 20.5 7.76861V1.05405C20.4665 1.05405 19.6951 1.60817 17.5487 2.84677ZM0.34375 0.499939V8.81164C0.34375 8.81164 0.947431 8.90943 1.7188 9.0724C2.15479 9.17019 3.73107 3.04234 3.63046 2.94456C2.49017 2.19487 0.34375 0.499939 0.34375 0.499939Z" fill="#47B892"/>
</svg>
