<svg width="21" height="14" viewBox="0 0 21 14" fill="none" xmlns="http://www.w3.org/2000/svg">
<path d="M20.4995 7.03194C20.4995 10.6418 16.0375 13.5558 10.5098 13.5558C4.98221 13.5558 0.520142 10.6418 0.520142 7.03194C0.520142 3.42206 4.98221 0.508057 10.5098 0.508057C16.0375 0.508057 20.4995 3.42206 20.4995 7.03194Z" fill="#FFDD67"/>
<path d="M20.4338 2.94355C20.2673 2.3564 19.7678 1.87798 18.9353 1.72575C18.0363 1.57353 17.2371 1.79099 16.4712 2.3129C16.0383 1.53004 15.3723 0.942887 14.3068 0.638439C13.2412 0.333991 12.1756 0.551454 11.5097 1.09511C10.8104 1.66051 10.544 2.55211 11.2766 3.70467C11.9758 4.79198 15.0726 6.96661 15.1725 7.03185C15.3057 6.98836 18.7688 5.57485 19.6013 4.87897C20.4338 4.20483 20.6003 3.5307 20.4338 2.94355ZM9.51172 1.09511C8.84574 0.551454 7.78017 0.333991 6.7146 0.638439C5.64903 0.942887 4.98305 1.53004 4.55016 2.3129C3.75099 1.81274 2.95181 1.57353 2.05274 1.7475C1.25356 1.89972 0.720778 2.37814 0.554283 2.96529C0.387788 3.5307 0.587582 4.22658 1.38676 4.90071C2.25253 5.57485 5.71563 6.98836 5.84883 7.03185C5.94872 6.96661 9.04553 4.79198 9.74481 3.70467C10.4774 2.55211 10.211 1.68226 9.51172 1.09511Z" fill="#F46767"/>
<path d="M16.1713 8.35845C16.1713 8.18448 16.0048 7.96702 15.5719 7.90178C14.4064 7.74956 12.7082 7.61908 10.5104 7.61908C8.31271 7.61908 6.61446 7.7713 5.44899 7.90178C4.98281 7.96702 4.84961 8.18448 4.84961 8.35845C4.84961 9.94593 6.71435 11.5334 10.5104 11.5334C14.3065 11.5117 16.1713 9.92419 16.1713 8.35845Z" fill="#664E27"/>
<path d="M14.7403 8.40197C14.0077 8.31499 12.4759 8.18451 10.5113 8.18451C8.54664 8.18451 7.01489 8.31499 6.28231 8.40197C5.84942 8.44546 5.81612 8.5542 5.84942 8.72817C5.88272 8.81515 5.88272 8.94563 5.94932 9.07611C5.98262 9.20659 6.04922 9.27182 6.38221 9.25008C7.01489 9.20659 14.041 9.20659 14.6737 9.25008C15.0066 9.27182 15.0399 9.20659 15.1065 9.07611C15.1398 8.94563 15.1731 8.8369 15.2064 8.72817C15.2064 8.5542 15.1731 8.44546 14.7403 8.40197Z" fill="white"/>
</svg>
