<svg width="36" height="30" viewBox="0 0 36 30" fill="none" xmlns="http://www.w3.org/2000/svg">
<path d="M20.6281 28.1775V11.5052C20.6281 10.6134 19.869 9.75816 18.5178 9.12758C17.1666 8.49699 15.3341 8.14274 13.4232 8.14274C11.5124 8.14274 10.4159 8.50394 8.74007 9.25578C7.65935 10.0906 6.93628 10.7916 6.93628 11.7066L6.65605 14.1215" stroke="#FFD500" stroke-width="2.5" stroke-linecap="round" stroke-linejoin="round"/>
<path d="M10.5896 15.1759H3.0737C2.48071 15.1759 2 15.452 2 15.7925V20.1091C2 20.4496 2.48071 20.7257 3.0737 20.7257H10.5896C11.1826 20.7257 11.6633 20.4496 11.6633 20.1091V15.7925C11.6633 15.452 11.1826 15.1759 10.5896 15.1759Z" stroke="#FFD500" stroke-width="2.5" stroke-linecap="round" stroke-linejoin="round"/>
<path d="M33.8967 9.99169L33.9347 7.01048C33.952 5.65506 33.2704 4.35107 32.0398 3.38538C30.8092 2.4197 29.1305 1.87142 27.3729 1.86116C25.6154 1.8509 23.9229 2.3795 22.6679 3.33067C21.4129 4.28185 20.6981 5.57769 20.6809 6.93311L20.6048 12.8955" stroke="#FFD500" stroke-width="2.5" stroke-linecap="round" stroke-linejoin="round"/>
</svg>
